<svg xmlns="http://www.w3.org/2000/svg" width="19.891" height="19.891" viewBox="0 0 19.891 19.891">
  <g id="help" transform="translate(-3.834 -3.834)">
    <g id="Group_340" data-name="Group 340" transform="translate(3.834 3.834)">
      <g id="Group_339" data-name="Group 339">
        <path id="Path_109" data-name="Path 109" d="M107.258,97.313a9.945,9.945,0,1,0,9.945,9.945A9.957,9.957,0,0,0,107.258,97.313Zm0,18.851a8.906,8.906,0,1,1,8.906-8.906A8.916,8.916,0,0,1,107.258,116.164Z" transform="translate(-97.313 -97.313)" fill="#85fcf9"/>
      </g>
    </g>
    <g id="Group_342" data-name="Group 342" transform="translate(11.596 11.042)">
      <g id="Group_341" data-name="Group 341">
        <path id="Path_110" data-name="Path 110" d="M225.012,220.081h-.035v-6.723h.035a.52.52,0,1,0,0-1.04h-3.327a.52.52,0,1,0,0,1.04h.035v6.723h-.035a.52.52,0,1,0,0,1.04h3.327a.52.52,0,1,0,0-1.04Zm-1.074,0H222.76v-6.723h1.178Z" transform="translate(-221.166 -212.319)" fill="#85fcf9"/>
      </g>
    </g>
    <g id="Group_344" data-name="Group 344" transform="translate(12.151 7.161)">
      <g id="Group_343" data-name="Group 343">
        <path id="Path_111" data-name="Path 111" d="M231.642,150.393a1.629,1.629,0,1,0,1.629,1.629A1.631,1.631,0,0,0,231.642,150.393Zm0,2.218a.589.589,0,1,1,.589-.589A.59.59,0,0,1,231.642,152.611Z" transform="translate(-230.013 -150.393)" fill="#85fcf9"/>
      </g>
    </g>
  </g>
</svg>
