<svg xmlns="http://www.w3.org/2000/svg" width="17.228" height="21.27" viewBox="0 0 17.228 21.27">
  <g id="XMLID_2_" transform="translate(-35.036)">
    <g id="Group_333" data-name="Group 333" transform="translate(35.036)">
      <g id="Group_332" data-name="Group 332" transform="translate(0)">
        <path id="Path_104" data-name="Path 104" d="M43.65,0a8.624,8.624,0,0,0-8.614,8.614,8.506,8.506,0,0,0,1.857,5.338c1.573,1.984,6.149,6.694,6.343,6.893l.414.426.414-.425c.194-.2,4.771-4.911,6.344-6.9a8.5,8.5,0,0,0,1.856-5.336A8.624,8.624,0,0,0,43.65,0ZM49.5,13.233c-1.267,1.6-4.669,5.151-5.854,6.38-1.185-1.229-4.586-4.782-5.852-6.378A7.364,7.364,0,0,1,36.19,8.614a7.46,7.46,0,1,1,14.92,0A7.361,7.361,0,0,1,49.5,13.233Z" transform="translate(-35.036)" fill="#85fcf9"/>
        <path id="Path_105" data-name="Path 105" d="M101.058,59.265a5.1,5.1,0,1,0,5.1,5.1A5.1,5.1,0,0,0,101.058,59.265Zm0,9.044A3.945,3.945,0,1,1,105,64.364,3.949,3.949,0,0,1,101.058,68.309Z" transform="translate(-92.444 -55.846)" fill="#85fcf9"/>
      </g>
    </g>
  </g>
</svg>
