<svg xmlns="http://www.w3.org/2000/svg" width="23.202" height="15.359" viewBox="0 0 23.202 15.359">
  <path id="XMLID_2192_" d="M22.478,17.808A1.8,1.8,0,0,0,20.67,16H1.808A1.8,1.8,0,0,0,0,17.808V28.876a1.8,1.8,0,0,0,1.808,1.784H20.694A1.8,1.8,0,0,0,22.5,28.851V17.808Zm-1.955.147v1.71H1.955v-1.71ZM1.955,28.7V22.6H20.523V28.7Zm16.736-3.176a.98.98,0,0,1-.977.977H13.071a.977.977,0,0,1,0-1.955h4.642A.98.98,0,0,1,18.691,25.529Z" transform="translate(0.35 -15.65)" fill="none" stroke="#85fcf9" stroke-width="0.7"/>
</svg>
