<svg id="specializari" xmlns="http://www.w3.org/2000/svg" width="22" height="22" viewBox="0 0 22 22">
  <g id="Group_334" data-name="Group 334">
    <path id="Path_106" data-name="Path 106" d="M20.6,4.915a5.588,5.588,0,0,1-.365,1.991L15.094,1.769A5.588,5.588,0,0,1,17.085,1.4V0a7.029,7.029,0,0,0-7.021,7.021V10.3H6.881A6.889,6.889,0,0,0,0,17.179H1.4a5.456,5.456,0,0,1,.268-1.691l4.841,4.841a5.456,5.456,0,0,1-1.691.268V22A6.889,6.889,0,0,0,11.7,15.119V11.936h3.277A7.029,7.029,0,0,0,22,4.915ZM7.85,19.68,2.32,14.15a5.518,5.518,0,0,1,.924-1.062l5.668,5.668A5.519,5.519,0,0,1,7.85,19.68Zm1.866-2.106-5.29-5.29a5.434,5.434,0,0,1,1.489-.5l4.3,4.3A5.434,5.434,0,0,1,9.716,17.574Zm.582-3.39L7.816,11.7H10.3Zm1.17-3.652V8.073l2.459,2.459Zm4.378-.067-2.18-2.18L11.535,6.154A5.57,5.57,0,0,1,12,4.634L17.366,10A5.571,5.571,0,0,1,15.846,10.465Zm2.731-1.241-5.8-5.8A5.662,5.662,0,0,1,13.8,2.465L19.535,8.2A5.668,5.668,0,0,1,18.577,9.224Z" fill="#85fcf9"/>
  </g>
</svg>
